HIERARCHY
ROOT hip
{
  OFFSET 0 0 0
  CHANNELS 6 Xposition Yposition Zposition Zrotation Yrotation Xrotation
  JOINT abdomen
  {
    OFFSET 0 20.6881 -0.73152
    CHANNELS 3 Zrotation Xrotation Yrotation
    JOINT chest
    {
      OFFSET 0 11.7043 -0.48768
      CHANNELS 3 Zrotation Xrotation Yrotation
      JOINT neck
      {
        OFFSET 0 22.1894 -2.19456
        CHANNELS 3 Zrotation Xrotation Yrotation
        JOINT head
        {
          OFFSET -0.24384 7.07133 1.2192
          CHANNELS 3 Zrotation Xrotation Yrotation
          JOINT leftEye
          {
            OFFSET 4.14528 8.04674 8.04672
            CHANNELS 3 Zrotation Xrotation Yrotation
            End Site
            {
              OFFSET 1 0 0
            }
          }
          JOINT rightEye
          {
            OFFSET -3.6576 8.04674 8.04672
            CHANNELS 3 Zrotation Xrotation Yrotation
            End Site
            {
              OFFSET 1 0 0
            }
          }
        }
      }
      JOINT rCollar
      {
        OFFSET -2.68224 19.2634 -4.8768
        CHANNELS 3 Zrotation Xrotation Yrotation
        JOINT rShldr
        {
          OFFSET -8.77824 -1.95073 1.46304
          CHANNELS 3 Zrotation Xrotation Yrotation
          JOINT rForeArm
          {
            OFFSET -28.1742 -1.7115 0.48768
            CHANNELS 3 Zrotation Xrotation Yrotation
            JOINT rHand
            {
              OFFSET -22.5879 0.773209 7.07136
              CHANNELS 3 Zrotation Xrotation Yrotation
              JOINT rThumb1
              {
                OFFSET -1.2192 -0.487915 3.41376
                CHANNELS 3 Zrotation Xrotation Yrotation
                JOINT rThumb2
                {
                  OFFSET -3.37035 -0.52449 3.41376
                  CHANNELS 3 Zrotation Xrotation Yrotation
                  End Site
                  {
                    OFFSET -1.78271 -1.18214 1.43049
                  }
                }
              }
              JOINT rIndex1
              {
                OFFSET -7.75947 0.938293 5.60832
                CHANNELS 3 Zrotation Xrotation Yrotation
                JOINT rIndex2
                {
                  OFFSET -2.54057 -0.884171 1.56538
                  CHANNELS 3 Zrotation Xrotation Yrotation
                  End Site
                  {
                    OFFSET -1.62519 -0.234802 1.16502
                  }
                }
              }
              JOINT rMid1
              {
                OFFSET -8.24714 1.18213 3.41376
                CHANNELS 3 Zrotation Xrotation Yrotation
                JOINT rMid2
                {
                  OFFSET -3.10165 -0.590103 1.0647
                  CHANNELS 3 Zrotation Xrotation Yrotation
                  End Site
                  {
                    OFFSET -2.48547 -0.328903 0.83742
                  }
                }
              }
              JOINT rRing1
              {
                OFFSET -8.82822 0.546677 1.51678
                CHANNELS 3 Zrotation Xrotation Yrotation
                JOINT rRing2
                {
                  OFFSET -2.60934 -0.819778 -0.0198488
                  CHANNELS 3 Zrotation Xrotation Yrotation
                  End Site
                  {
                    OFFSET -2.33842 -0.294052 0.168128
                  }
                }
              }
              JOINT rPinky1
              {
                OFFSET -8.27202 -0.0477905 -0.4584
                CHANNELS 3 Zrotation Xrotation Yrotation
                JOINT rPinky2
                {
                  OFFSET -1.82734 -0.647385 -0.700984
                  CHANNELS 3 Zrotation Xrotation Yrotation
                  End Site
                  {
                    OFFSET -1.69225 -0.51767 -0.607171
                  }
                }
              }
            }
          }
        }
      }
      JOINT lCollar
      {
        OFFSET 2.68224 19.2634 -4.8768
        CHANNELS 3 Zrotation Xrotation Yrotation
        JOINT lShldr
        {
          OFFSET 8.77824 -1.95073 1.46304
          CHANNELS 3 Zrotation Xrotation Yrotation
          JOINT lForeArm
          {
            OFFSET 28.1742 -1.7115 0.48768
            CHANNELS 3 Zrotation Xrotation Yrotation
            JOINT lHand
            {
              OFFSET 22.5879 0.773209 7.07136
              CHANNELS 3 Zrotation Xrotation Yrotation
              JOINT lThumb1
              {
                OFFSET 1.2192 -0.487915 3.41376
                CHANNELS 3 Zrotation Xrotation Yrotation
                JOINT lThumb2
                {
                  OFFSET 3.37035 -0.52449 3.41376
                  CHANNELS 3 Zrotation Xrotation Yrotation
                  End Site
                  {
                    OFFSET 1.78271 -1.18214 1.43049
                  }
                }
              }
              JOINT lIndex1
              {
                OFFSET 7.75947 0.938293 5.60832
                CHANNELS 3 Zrotation Xrotation Yrotation
                JOINT lIndex2
                {
                  OFFSET 2.54057 -0.884171 1.56538
                  CHANNELS 3 Zrotation Xrotation Yrotation
                  End Site
                  {
                    OFFSET 1.62519 -0.234802 1.16502
                  }
                }
              }
              JOINT lMid1
              {
                OFFSET 8.24714 1.18213 3.41376
                CHANNELS 3 Zrotation Xrotation Yrotation
                JOINT lMid2
                {
                  OFFSET 3.10165 -0.590103 1.0647
                  CHANNELS 3 Zrotation Xrotation Yrotation
                  End Site
                  {
                    OFFSET 2.48547 -0.328903 0.83742
                  }
                }
              }
              JOINT lRing1
              {
                OFFSET 8.82822 0.546677 1.51678
                CHANNELS 3 Zrotation Xrotation Yrotation
                JOINT lRing2
                {
                  OFFSET 2.60934 -0.819778 -0.0198488
                  CHANNELS 3 Zrotation Xrotation Yrotation
                  End Site
                  {
                    OFFSET 2.33842 -0.294052 0.168128
                  }
                }
              }
              JOINT lPinky1
              {
                OFFSET 8.27202 -0.0477905 -0.4584
                CHANNELS 3 Zrotation Xrotation Yrotation
                JOINT lPinky2
                {
                  OFFSET 1.82734 -0.647385 -0.700984
                  CHANNELS 3 Zrotation Xrotation Yrotation
                  End Site
                  {
                    OFFSET 1.69225 -0.51767 -0.607171
                  }
                }
              }
            }
          }
        }
      }
    }
  }
  JOINT rButtock
  {
    OFFSET -8.77824 4.35084 1.2192
    CHANNELS 3 Zrotation Xrotation Yrotation
    JOINT rThigh
    {
      OFFSET 0 -1.70687 -2.19456
      CHANNELS 3 Zrotation Xrotation Yrotation
      JOINT rShin
      {
        OFFSET 0 -36.8199 0.73152
        CHANNELS 3 Zrotation Xrotation Yrotation
        JOINT rFoot
        {
          OFFSET 0.73152 -45.1104 -5.12064
          CHANNELS 3 Zrotation Xrotation Yrotation
          End Site
          {
            OFFSET -1.1221 -3.69964 12.103
          }
        }
      }
    }
  }
  JOINT lButtock
  {
    OFFSET 8.77824 4.35084 1.2192
    CHANNELS 3 Zrotation Xrotation Yrotation
    JOINT lThigh
    {
      OFFSET 0 -1.70687 -2.19456
      CHANNELS 3 Zrotation Xrotation Yrotation
      JOINT lShin
      {
        OFFSET 0 -36.8199 0.73152
        CHANNELS 3 Zrotation Xrotation Yrotation
        JOINT lFoot
        {
          OFFSET -0.73152 -45.1104 -5.12064
          CHANNELS 3 Zrotation Xrotation Yrotation
          End Site
          {
            OFFSET 1.1221 -3.69964 12.103
          }
        }
      }
    }
  }
}
MOTION
Frames:	7
Frame Time:	0.03333
0.0 0.0 0.0 0.0 0.0 0.0 0.0 0.0 0.0 0.0 0.0 0.0 0.0 0.0 0.0 0.0 0.0 0.0 0.0 0.0 0.0 0.0 0.0 0.0 0.0 0.0 0.0 0.0 0.0 0.0 0.0 0.0 0.0 0.0 0.0 0.0 0.0 0.0 0.0 0.0 0.0 0.0 0.0 0.0 0.0 0.0 0.0 0.0 0.0 0.0 0.0 0.0 0.0 0.0 0.0 0.0 0.0 0.0 0.0 0.0 0.0 0.0 0.0 0.0 0.0 0.0 0.0 0.0 0.0 0.0 0.0 0.0 0.0 0.0 0.0 0.0 0.0 0.0 0.0 0.0 0.0 0.0 0.0 0.0 0.0 0.0 0.0 0.0 0.0 0.0 0.0 0.0 0.0 0.0 0.0 0.0 0.0 0.0 0.0 0.0 0.0 0.0 0.0 0.0 0.0 0.0 0.0 0.0 0.0 0.0 0.0 0.0 0.0 0.0 0.0 0.0 0.0 0.0 0.0 0.0 0.0 0.0 0.0 0.0 0.0 0.0 0.0 0.0 0.0 0.0 0.0 0.0
-0.5024 55.8283 -0.586 0.036539 66.083902 -0.995301 -0.036835 4.815946 1.507086 -10.42361 0.308831 71.618078 -0.35906 -18.367087 117.156874 10.403274 -49.709461 4.118382 -137.565108 16.500203 40.959494 -153.075399 20.955093 75.375286 66.958697 28.896576 5.260478 166.749328 -62.400295 149.17326 -178.195326 -43.761617 -176.083368 177.560319 -46.071963 -149.562186 -167.613706 -27.306641 -165.67321 161.925034 -10.672353 -149.40005 43.651111 -4.917259 -59.788896 -171.392876 -36.532501 -179.163091 -34.083244 -72.507174 -23.295835 -93.444215 82.99221 45.977989 57.706601 63.907684 -52.000025 -108.82726 -23.095637 -165.059484 128.345506 55.350354 -130.781381 -65.608 1.449023 3.584261 99.317051 -38.060005 -142.877771 126.607356 59.653544 -121.036823 160.151842 -14.494202 27.935952 86.572269 59.050773 95.587343 171.066598 -10.888499 174.529143 -168.0277 41.338286 29.469151 160.088255 25.66394 43.813721 78.581303 -71.780394 43.11125 -138.529576 35.763373 -48.070864 46.639349 16.169514 148.446142 94.793776 -52.009592 92.350972 74.070602 45.263305 114.812466 167.736139 17.541773 178.582094 55.88189 -12.628968 -84.471315 57.702036 26.355434 97.626877 -15.167126 61.934357 -25.93853 6.861751 -5.916129 44.698353 39.789654 27.859222 -60.413114 42.607314 0.224992 89.018435 1.466869 44.645913 0.712133 6.062431 -1.043219 83.998376 67.460526 45.584087 -84.857613
-0.0701 72.23469999999999 -0.1782 -75.902613 -85.950179 79.881624 0.319146 1.294073 118.055369 2.589254 -3.99591 -118.363306 -12.8668 11.750405 -113.502173 28.039187 34.439798 118.265423 24.296349 -12.417977 -53.624312 48.580187 7.990464 17.594256 -143.305019 -1.212496 149.780966 133.626554 -25.662931 163.697766 163.92709 22.710646 54.916528 -166.381977 -3.920185 102.878503 -6.659521 21.048784 23.262295 111.981954 -61.278192 167.735522 -168.471068 22.397083 64.663507 -6.813111 -18.112738 4.36504 10.918916 2.493248 38.454985 -9.110037 -29.296715 -150.456468 -89.990126 -1.376587 141.475089 -101.900262 -32.989634 131.464718 -79.971014 8.253668 118.682137 -99.124563 -14.778952 135.842306 -14.653723 14.00563 5.163978 125.911448 -19.392895 -145.768956 179.013827 30.180024 80.431468 -14.155611 15.68171 9.850308 170.206916 7.874477 -72.807189 -22.709194 -29.278237 -55.76064 95.489284 48.903139 -83.764507 175.554019 -10.76471 -163.072042 156.851957 0.165289 -122.752725 -48.754241 -7.643744 -56.164645 -80.028464 66.249088 66.748161 -67.4611 -2.651062 -73.187081 146.717706 8.294665 71.470737 -66.621784 -20.813828 151.722305 90.024384 53.711275 69.521794 -133.803096 57.993567 -159.46093 -24.594792 -23.202527 58.020871 120.001474 -3.728006 -70.050815 -131.840941 82.011213 -47.056122 -156.783077 49.072515 7.078695 10.539162 37.221386 38.060985 -105.910452 4.160606 46.339596
0.4433 64.2832 0.2557 -113.153949 -79.968221 116.117448 4.714754 16.143435 154.130066 -5.154379 9.185206 -142.358094 6.715536 10.978238 126.032463 -16.443294 6.428067 -111.256786 -25.549942 -0.50404 2.222771 44.335625 -5.562871 -13.599841 -156.416988 1.00102 166.132436 134.409963 -4.264604 171.087142 175.511015 -0.011811 33.358217 175.466963 -10.697477 115.77749 -0.385061 -40.818335 -9.994899 -43.532379 -41.834942 175.023947 48.908067 -5.636548 86.369494 49.894841 -69.204595 71.4426 93.760431 -50.7405 68.957027 -130.079399 78.814935 -2.766778 0.529171 21.571229 82.285113 -87.732537 5.735659 -131.829721 12.534333 20.899713 6.498574 155.078238 -27.174432 137.675987 124.45886 65.929175 -117.095271 -123.018471 -25.337741 -144.22378 6.660705 -10.312462 -75.449227 -3.964366 17.691666 1.508246 121.423541 43.670503 -47.713629 159.730609 -26.789256 -20.706123 -151.356025 -41.161149 -101.905075 166.201078 -11.475414 -108.198995 90.901254 84.239826 -77.401243 -0.551531 -30.091714 -33.200252 37.511323 -39.896352 2.13359 -98.133667 23.065975 34.454194 114.572837 84.633802 -118.604819 49.81212 -72.61288 -115.836302 65.228136 7.867657 33.089341 -89.38405 4.668671 173.078651 -41.660162 -61.487309 65.850863 -43.165258 -58.012125 55.869908 32.477426 53.335338 64.077003 -110.120255 -42.659867 170.292004 -65.073707 -41.380281 48.874051 -30.276616 -85.334004 76.809353
0.4937 56.029799999999994 0.4202 -129.679043 -79.586262 129.195492 4.642355 27.621612 -23.305291 7.27307 -20.573205 40.060457 -4.06576 13.931649 -17.089452 17.262916 -11.915891 33.492365 -36.158694 -9.8725 29.637867 -19.250339 -3.434476 20.050638 -1.865442 25.615344 -2.63719 -90.519909 26.863519 152.563404 31.187115 25.94179 -160.550743 -165.418123 43.01386 138.357978 -59.726017 -78.841398 -59.378263 -21.336431 -14.987503 -120.178552 -139.879065 83.34593 -141.556693 107.219499 -25.62756 -138.529414 -31.636936 77.359331 22.036437 56.81835 73.232217 -79.435111 -109.596316 -33.667626 -124.401489 -99.811973 -18.269971 -164.752286 -140.641069 6.661004 -92.093326 6.821558 -25.41075 -96.677102 -15.847745 -70.962336 -16.118561 120.333629 -0.889292 170.474422 31.675369 12.205438 91.207978 -143.816728 -44.541721 -123.517981 166.771419 13.166421 -85.9747 -35.628195 -60.921783 -80.478415 123.924552 4.913009 -98.756551 -1.159687 57.015165 -8.987492 17.529721 2.727096 25.449508 -176.056896 -13.516526 -87.896464 80.242514 31.783628 -36.243446 109.5995 -35.420932 -123.879793 30.177499 29.910435 -43.226857 131.009543 45.858994 95.734943 -56.589098 72.497017 -91.032512 91.220448 28.873844 171.725823 82.647437 -23.025901 114.718474 -135.314306 52.586345 -135.046085 -67.456719 -8.426935 -12.961531 114.613809 -46.570015 -89.736978 -65.060986 -39.854192 56.796671 -18.542907 -12.417649 63.641736
0.7789 59.1752 1.0804 -146.784933 -81.10145 148.641276 1.505303 11.068114 152.124791 -0.643234 8.263752 -137.140404 12.043807 33.760533 120.949259 -34.300163 20.782968 -97.05093 -12.221411 -1.610261 14.956467 -9.893189 -3.414974 38.010315 4.632746 -5.960341 0.497658 69.810559 41.121226 -7.94507 7.972556 -3.574089 104.191029 9.286129 -17.935663 11.648791 -19.445131 -70.385077 -36.812817 -51.835318 77.575958 62.068559 -177.206739 33.300888 -134.587455 122.335751 61.40337 -131.430941 161.163555 16.571099 -156.177858 -172.433512 -35.590859 -162.555462 -63.464509 -8.41846 -40.959102 83.606745 18.330934 35.042753 -94.230298 -22.304343 -71.811261 -7.038865 -53.614273 -30.041632 64.853691 50.650832 -60.188241 111.274213 42.15486 -93.403055 150.248502 48.227499 128.273227 -9.020977 0.727025 3.573318 0.202941 0.947688 -7.567069 -7.45 46.01555 28.799901 135.080968 -6.119812 -123.906577 -42.06153 -31.864897 13.796362 56.723447 -86.786982 64.873336 66.985076 53.645523 -90.242097 -156.915389 -40.003657 -171.043441 -169.114851 -2.48293 176.256037 13.253013 -69.223317 12.927367 160.63982 49.282104 -144.088939 0.547528 -20.525671 1.85227 -28.022097 6.729224 -71.285752 -58.686926 40.026736 142.120446 -36.746109 -53.615764 -111.170418 -62.108484 53.930997 -61.354987 151.418354 18.671144 -21.450318 -65.255572 12.964651 16.299029 -23.218141 -45.175539 83.230654
1.3681 63.2723 2.1881 -157.411297 -77.899943 161.427889 0.848572 1.916373 114.907658 2.6674 2.468496 -98.09216 -5.454656 17.946729 -15.340085 24.452317 -23.533897 41.767148 18.226068 -2.952982 -18.257274 3.76577 0.976297 29.059165 -164.177086 -45.183309 159.613938 142.627005 14.319724 -158.846123 -171.935306 -1.235462 41.445478 -174.216822 20.249462 148.796733 -8.70733 -4.560271 -23.220058 0.844903 39.975093 30.72303 160.271088 66.145227 173.700272 -8.660952 23.997498 26.339478 -38.787751 10.37479 -74.634504 33.655932 46.550363 44.9248 148.740627 41.539252 -154.810744 120.150741 0.93953 -151.561427 6.976113 39.98129 6.109969 148.904722 62.928353 -50.927279 131.629376 32.803091 -131.450145 -153.102659 -19.206739 -171.705971 16.410443 -25.623789 -69.772118 -9.662147 -7.104219 1.637118 9.536082 16.123623 -17.830215 106.515546 51.525252 -124.893566 10.24178 26.765255 3.243269 -51.721403 -37.554329 3.492991 158.622477 13.694217 -142.450682 17.846204 -75.598744 76.745085 29.089988 4.927821 -9.880264 26.029056 -67.592249 29.415114 106.657625 50.536006 -171.456826 -57.373899 -37.575301 43.691569 55.322681 47.577352 82.266682 -108.424887 64.939945 -171.416561 -67.856964 -15.910337 -145.626712 -51.787361 -18.477028 -139.021623 -35.325673 45.171415 -55.658638 126.111218 9.752228 104.676809 58.462753 50.509389 53.743124 -124.427755 -14.933623 115.868547
